<svg width="256" height="256" viewBox="0 0 256 256" xmlns="http://www.w3.org/2000/svg" role="img" aria-label="Hearthstone Agent Assistant icon">
  <defs>
    <linearGradient id="gold" x1="52" y1="34" x2="202" y2="220" gradientUnits="userSpaceOnUse">
      <stop offset="0" stop-color="#f5dc94"/>
      <stop offset="0.48" stop-color="#c9a04a"/>
      <stop offset="1" stop-color="#7d5118"/>
    </linearGradient>
    <linearGradient id="inner" x1="128" y1="54" x2="128" y2="196" gradientUnits="userSpaceOnUse">
      <stop offset="0" stop-color="#241c12"/>
      <stop offset="1" stop-color="#0e0b08"/>
    </linearGradient>
    <radialGradient id="arcane" cx="128" cy="120" r="54" gradientUnits="userSpaceOnUse">
      <stop offset="0" stop-color="#c9fbff"/>
      <stop offset="0.45" stop-color="#58dbf4"/>
      <stop offset="1" stop-color="#16638e"/>
    </radialGradient>
    <filter id="shadow" x="-20%" y="-20%" width="140%" height="150%">
      <feDropShadow dx="0" dy="10" stdDeviation="8" flood-color="#000" flood-opacity=".5"/>
    </filter>
  </defs>
  <path d="M128 18 218 70 194 184 128 236 62 184 38 70Z" fill="url(#gold)" stroke="#f9de94" stroke-width="9" stroke-linejoin="round" filter="url(#shadow)"/>
  <path d="M128 52 184 84 168 162 128 196 88 162 72 84Z" fill="url(#inner)" stroke="#4a2d10" stroke-width="7" stroke-linejoin="round"/>
  <circle cx="128" cy="120" r="46" fill="url(#arcane)" stroke="#92ecff" stroke-width="7"/>
  <path d="M128 58v126M86 121h84M99 92l58 58M157 92l-58 58" stroke="#f7d686" stroke-width="8" stroke-linecap="round"/>
  <circle cx="128" cy="122" r="16" fill="#ffdc7d"/>
</svg>
